<svg width="1600" height="900" viewBox="0 0 1600 900" fill="none" xmlns="http://www.w3.org/2000/svg">
  <rect width="1600" height="900" fill="#F4F4EF"/>
  <rect x="100" y="100" width="1400" height="700" rx="28" fill="#FFFFFF" stroke="#D9DEE5" stroke-width="2"/>
  <rect x="168" y="164" width="1264" height="84" rx="22" fill="#F8FBFD" stroke="#D9DEE5" stroke-width="2"/>
  <rect x="168" y="292" width="420" height="420" rx="24" fill="#FFFFFF" stroke="#D9DEE5" stroke-width="2"/>
  <rect x="628" y="292" width="804" height="420" rx="24" fill="#FFFFFF" stroke="#D9DEE5" stroke-width="2"/>
  <circle cx="240" cy="206" r="14" fill="#0F7F9D"/>
  <rect x="280" y="188" width="220" height="20" rx="10" fill="#0F172A" fill-opacity="0.16"/>
  <rect x="280" y="220" width="164" height="20" rx="10" fill="#0F172A" fill-opacity="0.12"/>
  <rect x="220" y="352" width="220" height="18" rx="9" fill="#0F172A" fill-opacity="0.16"/>
  <rect x="220" y="396" width="130" height="18" rx="9" fill="#0F7F9D" fill-opacity="0.18"/>
  <rect x="220" y="452" width="300" height="18" rx="9" fill="#0F172A" fill-opacity="0.12"/>
  <rect x="220" y="496" width="264" height="18" rx="9" fill="#0F172A" fill-opacity="0.12"/>
  <rect x="692" y="356" width="676" height="2" fill="#D9DEE5"/>
  <rect x="692" y="458" width="676" height="2" fill="#D9DEE5"/>
  <rect x="692" y="560" width="676" height="2" fill="#D9DEE5"/>
  <rect x="732" y="324" width="240" height="22" rx="11" fill="#0F172A" fill-opacity="0.16"/>
  <rect x="732" y="386" width="368" height="18" rx="9" fill="#0F172A" fill-opacity="0.12"/>
  <rect x="732" y="488" width="400" height="18" rx="9" fill="#0F172A" fill-opacity="0.12"/>
  <rect x="732" y="590" width="344" height="18" rx="9" fill="#0F172A" fill-opacity="0.12"/>
</svg>
