<svg width="1600" height="900" viewBox="0 0 1600 900" fill="none" xmlns="http://www.w3.org/2000/svg">
  <rect width="1600" height="900" fill="#F4F4EF"/>
  <rect x="96" y="96" width="1408" height="708" rx="28" fill="#FFFFFF" stroke="#D9DEE5" stroke-width="2"/>
  <rect x="164" y="172" width="540" height="28" rx="14" fill="#0F7F9D" fill-opacity="0.16"/>
  <rect x="164" y="244" width="840" height="28" rx="14" fill="#0F172A" fill-opacity="0.12"/>
  <rect x="164" y="292" width="760" height="28" rx="14" fill="#0F172A" fill-opacity="0.12"/>
  <rect x="164" y="340" width="680" height="28" rx="14" fill="#0F172A" fill-opacity="0.12"/>
  <rect x="164" y="428" width="536" height="260" rx="24" fill="#F8FBFD" stroke="#D9DEE5" stroke-width="2"/>
  <rect x="756" y="428" width="404" height="112" rx="24" fill="#FFFFFF" stroke="#D9DEE5" stroke-width="2"/>
  <rect x="756" y="576" width="404" height="112" rx="24" fill="#FFFFFF" stroke="#D9DEE5" stroke-width="2"/>
  <path d="M228 520H630" stroke="#0F7F9D" stroke-width="6" stroke-linecap="round"/>
  <path d="M228 564H582" stroke="#0F172A" stroke-opacity="0.22" stroke-width="6" stroke-linecap="round"/>
  <path d="M228 608H546" stroke="#0F172A" stroke-opacity="0.22" stroke-width="6" stroke-linecap="round"/>
  <circle cx="1278" cy="260" r="108" fill="#0F7F9D" fill-opacity="0.12"/>
  <path d="M1228 260H1328" stroke="#0F7F9D" stroke-width="10" stroke-linecap="round"/>
  <path d="M1278 210V310" stroke="#0F7F9D" stroke-width="10" stroke-linecap="round"/>
</svg>
